<?xml version="1.0" encoding="UTF-8"?>
<svg version="1.1" viewBox="0 0 2048 2048" width="512" height="512" xmlns="http://www.w3.org/2000/svg">
<path transform="translate(1020,673)" d="m0 0 22 1 20 4 15 5 26 11 29 13 32 14 41 18 27 12 32 14 82 36 43 19 39 17 36 16 73 32 125 55 75 33 125 55 45 20 32 14 41 18 19 10 12 9 10 9 10 12 9 16 5 14 3 11v25l-6 20-8 16-9 12-14 14-15 10-16 8-24 11-73 32-26 11-1 3-1 154h18l15 2 12 4 13 8 10 9 8 10 8 16 3 13v175l-3 19-6 18-8 16-8 12-9 11-7 7-10 8-16 10-16 7-17 5-22 3h-12l-21-3-16-5-16-7-13-8-10-8-16-16-9-13-8-14-6-16-3-12-2-16v-172l4-16 7-14 8-10 8-8 15-9 16-5 8-1h20v-120l-84 37-30 13-43 19-8 4-1 357-3 14-5 12-8 13-11 12-9 9-14 10-13 8-14 8-27 12-27 10-33 10-44 11-44 9-49 8-44 6-50 5-52 4-59 3-37 1h-86l-60-2-64-4-53-5-56-7-49-8-36-7-43-10-35-10-29-10-24-10-19-9-17-10-14-10-12-11-10-10-10-15-6-15-2-10-1-10-1-350-30-13-29-13-64-28-125-55-75-33-43-19-19-9-17-12-15-15-10-15-7-16-4-14v-28l8-24 8-14 9-11 10-10 17-12 29-14 75-33 30-13 36-16 30-13 43-19 34-15 125-55 32-14 27-12 73-32 36-16 30-13 43-19 34-15 207-91 32-14 21-7 17-3z" fill="#440A2B"/>
<path transform="translate(999,1119)" d="m0 0h52l46 1 60 3 63 5 44 5 43 6 35 6 30 6 38 9 31 9 26 9 23 10 19 10 13 10 5 5 1 21v445l-5-1-23-10-37-13-35-10-48-11-43-8-46-7-59-7-62-5-55-3-31-1h-119l-54 2-50 3-54 5-43 5-59 9-46 9-42 10-28 8-33 11-24 10-9 4-3-1v-460l2-6 7-7 15-10 16-8 16-7 25-9 33-10 37-9 34-7 56-9 40-5 51-5 38-3 58-3z" fill="#8AB5F0"/>
<path transform="translate(1022,754)" d="m0 0 13 1 16 5 32 14 41 18 61 27 39 17 61 27 39 17 61 27 39 17 61 27 39 17 61 27 39 17 61 27 39 17 36 16 14 7 1 7v181l-6 4-17 7-15 7-73 32-36 16-16 7h-3l-1-133-3-16-7-16-7-11-11-12-7-7-18-13-25-14-19-9-29-11-21-7-36-10-38-9-41-8-44-7-47-6-53-5-41-3-58-3-44-1h-70l-43 1-62 3-52 4-57 6-55 8-44 8-41 9-35 9-25 8-23 8-24 10-22 11-16 10-16 12-13 13-8 11-8 15-4 16-1 8-1 131-5-1-27-12-32-14-43-19-30-13-36-16-32-14-41-18-36-16-30-13-27-12-11-6-7-8-1-2v-6l5-7 13-8 27-12 125-55 100-44 32-14 18-8 35-15 40-18 17-7 15-7 30-13 63-28 35-15 31-14 34-15 35-15 31-14 30-13 86-38 30-13 27-12 43-19 25-10z" fill="#8AB5F0"/>
<path transform="translate(985,1683)" d="m0 0h82l59 2 50 3 47 4 37 4 49 7 41 7 45 10 31 8 36 12 20 8 17 8 16 10 10 9 2 3-9 8-14 9-19 10-28 11-28 9-42 11-43 9-48 8-55 7-52 5-41 3-40 2-31 1h-106l-70-3-53-4-49-5-52-7-42-7-39-8-36-9-30-9-27-10-24-11-18-11-9-8 1-4 7-7 16-10 17-9 23-9 36-12 34-9 42-9 47-8 43-6 58-6 39-3 62-3z" fill="#9262E2"/>
<path transform="translate(1308,1140)" d="m0 0 18 2 46 9 38 9 31 9 26 9 23 10 19 10 13 10 5 5 1 21v445l-5-1-23-10-37-13-35-10-48-11-31-6v-221l-11 5h-8l-9-3-8-7-3-5-2-10v-50l2-11 6-8 5-4 9-3 10 1 9 3v-130l-2-11-7-10-1-3h-2v-2l-4-2-10-9-8-5-7-2z" fill="#7F84F0"/>
<path transform="translate(1771,147)" d="m0 0h9l5 3 4 5 5 12 23 64 9 24 4 5 12 6 30 13 38 17 14 7 5 7 1 8-3 8-7 6-29 13-32 14-27 12-5 5-7 18-13 36-15 41-6 11-7 4-8-1-6-4-7-16-21-58-11-30-4-5-19-9-41-18-29-13-6-4-4-6-1-8 4-9 9-6 41-18 45-20 5-6 8-21 20-56 8-21 4-6z" fill="#B3E9F6"/>
<path transform="translate(288,444)" d="m0 0h10l5 3 7 14 18 50 14 38 5 8 42 19 30 13 21 10 5 6 2 4v8l-5 8-8 5-29 13-41 18-16 7-4 5-6 15-21 58-10 27-5 7-9 3-7-2-6-7-10-26-14-39-12-33-4-6-6-4-41-18-36-16-12-6-5-7v-12l4-6 8-5 38-17 32-14 17-8 4-5 9-24 15-41 9-26 6-12z" fill="#B2E8F5"/>
<path transform="translate(985,1683)" d="m0 0h82l59 2 50 3 47 4 19 2 10 2v2l7 1 1 2-16 6-11 3-24 6-46 9-43 6-12 2-56 5-32 2-54 2h-99l-44-1-37-2-41-3-19-2-38-5-9-2-13-2-5-3v-2l-2-1 15-4 35-7 43-7 45-6 49-5 39-3 62-3z" fill="#9C7DE6"/>
<path transform="translate(847,96)" d="m0 0h8l5 5 8 20 15 43 5 13 5 4 57 26 9 5 4 6v7l-4 6-16 8-35 16-18 8-4 8-17 48-8 21-6 7h-8l-6-7-16-44-8-23-5-10-32-15-34-15-5-5-2-5 1-8 6-5 32-15 27-12 8-5 4-9 10-28 13-36 5-8z" fill="#B3E9F6"/>
<path transform="translate(1403,475)" d="m0 0h21l16 4 15 8 10 8 9 10 8 14 4 11 2 9v21l-4 16-7 14-7 9-4 5-10 8-16 8-15 4-14 1-16-2-16-6-11-7-12-11-10-15-6-16-2-11v-14l3-15 7-16 8-11 11-11 11-7 11-5z" fill="#8BB6F0"/>
<path transform="translate(1770,1558)" d="m0 0h89l2 1v150l-4 13-6 10-7 7-12 7-12 3h-10l-12-3-11-6-9-9-7-14-2-9v-149z" fill="#FFEA6C"/>
<path transform="translate(635,1372)" d="m0 0h9l11 3 8 4 10 9 5 10 2 8v78l-3 11-6 9-8 8-10 5-8 2h-9l-9-2-10-5-8-7-6-10-3-12-1-59 1-20 5-12 7-9 10-7 7-3z" fill="#FDFDFD"/>
<path transform="translate(1856,1115)" d="m0 0 6 2 69 30 20 9 10 7 5 5 1 8-4 6-7 6-21 10-30 13-41 18-6 3h-2z" fill="#8AB4F0"/>
<path transform="translate(632,1225)" d="m0 0h14l13 4 10 7 7 10 4 13 1 21-1 15-3 10-6 10-7 7-14 7-6 1h-8l-12-3-10-6-8-9-4-9-2-9-1-13v-13l2-14 4-9 6-8 7-6 11-5z" fill="#FDFDFD"/>
<path transform="translate(1410,1481)" d="m0 0h14l10 6 6 9 2 7v54l-2 9-4 6-8 7-6 2h-10l-9-4-6-5-4-9-1-7v-52l2-8 5-8 8-6z" fill="#440A2B"/>
<path transform="translate(1330,1311)" d="m0 0 10 1 9 5 6 7 2 5 1 6v50l-2 12-6 8-5 4-7 3h-8l-9-3-8-7-3-5-2-10v-50l2-11 6-8 5-4z" fill="#440A2B"/>
<path transform="translate(1213,1378)" d="m0 0h13l8 4 7 8 3 8v59l-4 10-5 6-7 4-3 1h-10l-9-4-6-5-4-8-1-4v-58l3-9 7-8z" fill="#440A2B"/>
<path transform="translate(317,241)" d="m0 0h15l10 4 7 6 6 10 2 12-2 10-4 8-8 8-9 4-12 1-10-2-10-7-6-9-3-8v-11l4-11 8-9 9-5z" fill="#8BB6F0"/>
<path transform="translate(1771,1078)" d="m0 0 3 1 1 7v181l-2 1-1-16v-172z" fill="#7F85F1"/>
<path transform="translate(1202,1691)" d="m0 0h11l29 3v1h-26l-1-1-12-1z" fill="#9262E2"/>
</svg>
