<?xml version="1.0" encoding="UTF-8"?>
<svg version="1.1" viewBox="0 0 2048 2048" width="512" height="512" xmlns="http://www.w3.org/2000/svg">
<path transform="translate(1526,641)" d="m0 0h53l40 3 38 5 30 6 28 7 36 12 27 11 25 12 20 11 22 14 19 14 10 8 13 11 13 12 16 16 7 8 11 13 10 13 12 17 14 22 13 24 15 31 13 34 9 28 8 30 7 33 5 32 5 44 3 37v899h-421l-1-4-1-749-3-37-5-34-7-31-9-29-9-21-8-16-11-18-10-13-12-14-11-10-16-12-17-10-17-8-24-8-22-5-26-3h-46l-26 3-29 6-30 10-19 9-18 11-12 9-13 11-16 16-13 17-10 15-10 18-9 20-9 25-7 27-5 26-3 22-2 22-1 22-1 733h-405l-1-1363 1-2h405v181l4-4 7-12 14-19 11-14 10-11 7-8 9-10 17-17 8-7 14-12 16-13 17-12 18-12 20-12 29-15 20-9 29-11 34-10 32-7 25-4 30-3z" fill="#0C678F"/>
<path transform="translate(41,683)" d="m0 0h422l1 1v1363l-1 1h-422z" fill="#0C678F"/>
<path transform="translate(224)" d="m0 0h52l31 6 25 7 24 10 23 12 16 11 13 10 12 11 10 9 10 11 11 14 10 15 10 17 11 23 7 20 6 22 4 25 1 13v31l-2 22-5 24-6 21-8 20-9 19-13 21-12 16-12 14-19 19-17 13-13 9-13 8-23 11-21 8-27 7-28 4-17 1h-11l-27-2-26-5-26-8-26-11-21-12-17-12-11-9-10-9-17-17-9-11-13-18-10-17-8-16-8-19-7-22-6-30-2-14v-42l6-34 8-28 8-20 8-16 12-20 14-19 9-10 7-8 11-11 11-9 17-13 20-12 15-8 20-8 23-7 29-6z" fill="#0C678F"/>
</svg>
